<?xml version="1.0" encoding="utf-8"?>
<!-- Generator: Adobe Illustrator 15.0.0, SVG Export Plug-In  -->
<!DOCTYPE svg PUBLIC "-//W3C//DTD SVG 1.1//EN" "http://www.w3.org/Graphics/SVG/1.1/DTD/svg11.dtd" [
	<!ENTITY ns_flows "http://ns.adobe.com/Flows/1.0/">
]>
<svg version="1.1"
	 xmlns="http://www.w3.org/2000/svg" xmlns:xlink="http://www.w3.org/1999/xlink" xmlns:a="http://ns.adobe.com/AdobeSVGViewerExtensions/3.0/"
	 x="0px" y="0px" width="100px" height="100px" viewBox="-1.001 -2.002 100 100"
	 overflow="visible" enable-background="new -1.001 -2.002 100 100" xml:space="preserve">
<defs>
</defs>
<path fill="#010101" d="M91.233,24.353C86.86,16.861,80.928,10.929,73.438,6.558C65.947,2.186,57.767,0,48.896,0
	c-8.871,0-17.053,2.186-24.543,6.558C16.861,10.929,10.93,16.861,6.558,24.353C2.186,31.843,0,40.024,0,48.895
	C0,59.548,3.109,69.129,9.327,77.64c6.218,8.509,14.25,14.398,24.097,17.667c1.146,0.212,1.994,0.062,2.546-0.445
	c0.552-0.509,0.828-1.146,0.828-1.91c0-0.127-0.011-1.272-0.032-3.438c-0.022-2.165-0.033-4.054-0.033-5.665l-1.464,0.253
	c-0.934,0.172-2.111,0.243-3.533,0.224c-1.421-0.021-2.897-0.17-4.424-0.446c-1.529-0.274-2.95-0.911-4.266-1.908
	c-1.316-0.998-2.25-2.304-2.801-3.915l-0.637-1.465c-0.425-0.976-1.092-2.059-2.005-3.247c-0.913-1.188-1.836-1.994-2.77-2.419
	l-0.446-0.319c-0.297-0.212-0.572-0.467-0.827-0.764c-0.255-0.298-0.445-0.596-0.573-0.892c-0.127-0.298-0.022-0.542,0.318-0.733
	c0.34-0.191,0.955-0.285,1.847-0.285l1.273,0.19c0.849,0.171,1.898,0.678,3.151,1.528c1.252,0.848,2.281,1.951,3.088,3.31
	c0.976,1.74,2.153,3.066,3.533,3.979c1.379,0.912,2.77,1.368,4.17,1.368c1.4,0,2.609-0.106,3.629-0.317
	c1.018-0.213,1.973-0.532,2.864-0.955c0.382-2.846,1.422-5.03,3.119-6.559c-2.419-0.254-4.594-0.637-6.525-1.146
	c-1.931-0.512-3.926-1.338-5.984-2.485c-2.059-1.145-3.768-2.567-5.125-4.264c-1.358-1.698-2.473-3.928-3.342-6.686
	c-0.87-2.76-1.305-5.942-1.305-9.55c0-5.136,1.676-9.507,5.03-13.115c-1.571-3.862-1.423-8.191,0.445-12.987
	c1.23-0.383,3.056-0.096,5.475,0.859c2.419,0.955,4.191,1.773,5.316,2.451c1.125,0.678,2.026,1.253,2.706,1.719
	c3.948-1.103,8.022-1.654,12.224-1.654c4.201,0,8.276,0.551,12.226,1.654l2.418-1.527c1.655-1.018,3.608-1.953,5.857-2.802
	c2.249-0.848,3.969-1.082,5.158-0.7c1.909,4.797,2.079,9.125,0.508,12.987c3.354,3.608,5.031,7.981,5.031,13.116
	c0,3.607-0.437,6.8-1.306,9.582c-0.87,2.78-1.993,5.007-3.373,6.685c-1.381,1.677-3.101,3.089-5.158,4.234s-4.054,1.972-5.984,2.482
	c-1.932,0.51-4.106,0.893-6.525,1.147c2.206,1.909,3.31,4.923,3.31,9.04v13.432c0,0.763,0.266,1.4,0.796,1.909
	s1.368,0.658,2.515,0.445c9.849-3.268,17.882-9.156,24.099-17.667c6.218-8.509,9.326-18.09,9.326-28.745
	C97.791,40.024,95.602,31.843,91.233,24.353z"/>
</svg>
