<?xml version="1.0" encoding="utf-8"?>
<!-- Generator: Adobe Illustrator 15.0.0, SVG Export Plug-In  -->
<!DOCTYPE svg PUBLIC "-//W3C//DTD SVG 1.1//EN" "http://www.w3.org/Graphics/SVG/1.1/DTD/svg11.dtd" [
	<!ENTITY ns_flows "http://ns.adobe.com/Flows/1.0/">
]>
<svg version="1.1"
	 xmlns="http://www.w3.org/2000/svg" xmlns:xlink="http://www.w3.org/1999/xlink" xmlns:a="http://ns.adobe.com/AdobeSVGViewerExtensions/3.0/"
	 x="0px" y="0px" width="100px" height="100px" viewBox="-0.666 -0.5 100 100"
	 overflow="visible" enable-background="new -0.666 -0.5 100 100" xml:space="preserve">
<defs>
</defs>
<path display="none" fill="#010101" d="M91.568,25.854C87.195,18.363,81.264,12.431,73.773,8.06
	c-7.491-4.372-15.671-6.558-24.542-6.558c-8.871,0-17.053,2.186-24.543,6.558c-7.492,4.372-13.422,10.303-17.795,17.795
	c-4.372,7.491-6.558,15.671-6.558,24.542c0,10.653,3.109,20.234,9.327,28.745C15.88,87.65,23.913,93.54,33.76,96.809
	c1.146,0.212,1.994,0.062,2.546-0.445c0.552-0.509,0.828-1.146,0.828-1.91c0-0.127-0.011-1.272-0.032-3.438
	c-0.022-2.165-0.033-4.054-0.033-5.665l-1.464,0.253c-0.934,0.172-2.111,0.243-3.533,0.224c-1.421-0.021-2.897-0.17-4.424-0.446
	c-1.529-0.274-2.95-0.911-4.266-1.908c-1.316-0.998-2.25-2.304-2.801-3.915l-0.637-1.465c-0.425-0.976-1.092-2.059-2.005-3.247
	c-0.913-1.188-1.836-1.994-2.77-2.419l-0.446-0.319c-0.297-0.212-0.572-0.467-0.827-0.764c-0.255-0.298-0.445-0.596-0.573-0.892
	c-0.127-0.298-0.022-0.542,0.318-0.733c0.34-0.191,0.955-0.285,1.847-0.285l1.273,0.19c0.849,0.171,1.898,0.678,3.151,1.528
	C21.164,72,22.193,73.104,23,74.462c0.976,1.74,2.153,3.066,3.533,3.979c1.379,0.912,2.77,1.368,4.17,1.368
	c1.4,0,2.609-0.106,3.629-0.317c1.018-0.213,1.973-0.532,2.864-0.955c0.382-2.846,1.422-5.03,3.119-6.559
	c-2.419-0.254-4.594-0.637-6.525-1.146c-1.931-0.512-3.926-1.338-5.984-2.485c-2.059-1.145-3.768-2.567-5.125-4.264
	c-1.358-1.698-2.473-3.928-3.342-6.686c-0.87-2.76-1.305-5.942-1.305-9.55c0-5.136,1.676-9.507,5.03-13.115
	c-1.571-3.862-1.423-8.191,0.445-12.987c1.23-0.383,3.056-0.096,5.475,0.859c2.419,0.955,4.191,1.773,5.316,2.451
	c1.125,0.678,2.026,1.253,2.706,1.719c3.948-1.103,8.022-1.654,12.224-1.654c4.201,0,8.276,0.551,12.226,1.654l2.418-1.527
	c1.655-1.018,3.608-1.953,5.857-2.802c2.249-0.848,3.969-1.082,5.158-0.7c1.909,4.797,2.079,9.125,0.508,12.987
	c3.354,3.608,5.031,7.981,5.031,13.116c0,3.607-0.437,6.8-1.306,9.582c-0.87,2.78-1.993,5.007-3.373,6.685
	c-1.381,1.677-3.101,3.089-5.158,4.234s-4.054,1.972-5.984,2.482c-1.932,0.51-4.106,0.893-6.525,1.147
	c2.206,1.909,3.31,4.923,3.31,9.04v13.432c0,0.763,0.266,1.4,0.796,1.909s1.368,0.658,2.515,0.445
	c9.849-3.268,17.882-9.156,24.099-17.667c6.218-8.509,9.326-18.09,9.326-28.745C98.126,41.526,95.938,33.345,91.568,25.854z"/>
<path display="none" fill="#040305" d="M49.335,0.5c-27.06,0-49,21.94-49,49c0,27.059,21.94,49,49,49c27.06,0,49-21.941,49-49
	C98.335,22.433,76.395,0.5,49.335,0.5z M37.085,73.234h-12.25V30.359h12.25V73.234z M31.34,27.731c-3.173,0-5.739-2.572-5.739-5.745
	s2.572-5.745,5.739-5.745c3.173,0.006,5.745,2.578,5.745,5.745C37.085,25.159,34.513,27.731,31.34,27.731z M79.96,73.234H67.71
	V46.725c0-3.105-0.889-5.28-4.705-5.28c-6.326,0-7.545,5.28-7.545,5.28v26.509H43.21V30.359h12.25v4.098
	c1.752-1.342,6.125-4.092,12.25-4.092c3.97,0,12.25,2.377,12.25,16.733V73.234z"/>
<path fill="#010101" d="M72.008,0H26.659C11.959,0,0,11.959,0,26.659v45.349c0,14.699,11.959,26.659,26.659,26.659h45.349
	c14.699,0,26.659-11.96,26.659-26.659V26.659C98.667,11.959,86.707,0,72.008,0z M90.695,72.008c0,10.304-8.384,18.688-18.688,18.688
	H26.659c-10.305,0-18.688-8.384-18.688-18.688V26.659c0-10.304,8.383-18.688,18.688-18.688h45.349
	c10.304,0,18.688,8.384,18.688,18.688V72.008z"/>
<path fill="#010101" d="M71.415,45.892c-0.701-4.73-2.858-9.018-6.241-12.399c-3.382-3.382-7.669-5.54-12.398-6.241
	c-2.155-0.319-4.337-0.319-6.491,0c-5.846,0.866-11.004,3.958-14.525,8.705c-3.521,4.748-4.982,10.581-4.115,16.425
	c0.867,5.847,3.958,11.005,8.705,14.525c3.854,2.858,8.422,4.359,13.134,4.359c1.092,0,2.192-0.081,3.292-0.244
	c5.846-0.867,11.004-3.958,14.524-8.704S72.282,51.737,71.415,45.892z M51.605,63.138c-3.739,0.556-7.471-0.38-10.507-2.633
	c-3.037-2.252-5.014-5.552-5.569-9.292c-0.555-3.739,0.38-7.471,2.632-10.507c2.252-3.037,5.552-5.015,9.292-5.569
	c0.689-0.102,1.382-0.152,2.076-0.152c0.693,0,1.387,0.05,2.076,0.152c6.211,0.921,11.004,5.714,11.925,11.925
	C64.675,54.781,59.325,61.992,51.605,63.138z"/>
<path fill="#010101" d="M77.093,21.574c-0.741-0.742-1.77-1.168-2.818-1.168s-2.076,0.426-2.818,1.168
	c-0.741,0.742-1.167,1.768-1.167,2.818c0,1.051,0.426,2.077,1.167,2.818c0.742,0.742,1.77,1.168,2.818,1.168
	s2.077-0.426,2.818-1.168c0.742-0.742,1.168-1.769,1.168-2.818S77.835,22.316,77.093,21.574z"/>
</svg>
