<?xml version="1.0" encoding="utf-8"?>
<!-- Generator: Adobe Illustrator 22.0.1, SVG Export Plug-In . SVG Version: 6.00 Build 0)  -->
<svg version="1.1" id="Layer_1" xmlns="http://www.w3.org/2000/svg" xmlns:xlink="http://www.w3.org/1999/xlink" x="0px" y="0px"
	 viewBox="0 0 300 300" style="enable-background:new 0 0 300 300;" xml:space="preserve">
<style type="text/css">
	.st0{fill:#AAAAAA;}
	.st1{fill:#862634;}
	.st2{fill:#8D9093;}
	.st3{fill:#B2B1B2;}
	.st4{fill:#F4E600;}
	.st5{fill:#B31E3B;}
	.st6{fill:#213F7D;}
	.st7{fill:#8DB7E2;}
	.st8{fill:#853B49;}
	.st9{fill:#324C78;}
	.st10{fill:#EADA48;}
</style>
<rect x="-72" y="-72" class="st0" width="485" height="507"/>
<polyline class="st1" points="-100.1,284.6 -207.1,277.5 -160.5,186.3 -100.1,216.6 "/>
<rect x="80.6" y="146.7" transform="matrix(0.7071 -0.7071 0.7071 0.7071 -82.4478 105.5755)" class="st2" width="11.2" height="11.2"/>
<path class="st2" d="M281.9,159.8"/>
<path class="st2" d="M271.9,160.3"/>
<polygon class="st3" points="211.7,159.8 203.6,151.7 211.7,143.9 219.7,151.8 "/>
<rect x="-140.8" y="146.7" transform="matrix(0.7071 -0.7071 0.7071 0.7071 -147.2954 -50.9953)" class="st4" width="11.2" height="11.2"/>
<polygon class="st3" points="-260.7,159.8 -252.6,151.7 -260.7,143.9 -268.7,151.8 "/>
<polygon class="st5" points="285.4,278.9 148.7,290.7 10.5,281.5 148.7,10.4 "/>
<polyline class="st1" points="148.7,10.4 287,281.5 148.7,290.7 "/>
<polygon class="st6" points="148.7,203.5 226.8,163.7 182.6,77.1 114.3,77.1 70.5,163.9 "/>
<polyline class="st2" points="148.7,203.5 226.9,163.7 182.6,77.1 148.7,10.4 "/>
<polyline class="st7" points="148.7,148.8 164,124.9 204.4,119.8 148.7,10.4 "/>
<polyline class="st2" points="198.7,-81.2 214,-105.1 254.4,-110.2 198.7,-219.6 "/>
<rect x="186.8" y="112.5" transform="matrix(0.707 -0.7072 0.7072 0.707 -27.8239 172.3646)" class="st7" width="14.5" height="14.5"/>
<rect x="174" y="113.2" transform="matrix(0.7072 -0.707 0.707 0.7072 -32.0563 163.4277)" class="st7" width="14.5" height="14.5"/>
<polygon class="st7" points="148.8,148.8 176,121.6 165.9,111.5 "/>
<polyline class="st4" points="148.8,10.4 92.9,119.6 133.6,124.9 148.8,148.8 "/>
<polygon class="st4" points="103.4,130.1 92.9,119.6 103.4,109.5 113.7,119.8 "/>
<rect x="109" y="113.2" transform="matrix(0.707 -0.7072 0.7072 0.707 -51.1267 117.5372)" class="st4" width="14.5" height="14.5"/>
<polygon class="st4" points="148.7,148.8 121.5,121.6 131.6,111.5 "/>
<polygon class="st8" points="-275.8,163.7 -119.5,163.9 -59.5,281.5 -197.7,290.7 -334.4,278.9 "/>
<polyline class="st5" points="-197.7,290.7 -336,281.5 -275.9,163.7 -197.7,203.5 "/>
<polygon class="st9" points="-119.5,163.9 -141.9,119.6 -185.8,119.7 -197.7,148.8 -203.6,119.7 -253.4,119.8 -275.8,163.7 
	-197.7,203.5 "/>
<polyline class="st6" points="-197.7,148.8 -223.2,123.7 -244.6,123.4 -253.4,119.8 -275.9,163.7 -197.7,203.5 "/>
<polyline class="st4" points="-197.7,10.4 -253.4,119.8 -213,124.9 -197.7,148.8 "/>
<rect x="-250.4" y="112.5" transform="matrix(0.7071 -0.7071 0.7071 0.7071 -155.9019 -136.838)" class="st4" width="14.5" height="14.5"/>
<rect x="-237.6" y="113.2" transform="matrix(0.7072 -0.707 0.707 0.7072 -152.6073 -127.5723)" class="st4" width="14.5" height="14.5"/>
<polygon class="st4" points="-197.8,148.8 -225,121.5 -214.9,111.5 "/>
<polyline class="st10" points="-197.8,148.8 -182.6,124.9 -141.9,119.6 -197.8,10.4 "/>
<polygon class="st10" points="-152.4,130.1 -141.9,119.6 -152.4,109.5 -162.7,119.8 "/>
<rect x="-172.5" y="113.3" transform="matrix(0.707 -0.7072 0.7072 0.707 -133.6539 -81.5326)" class="st10" width="14.5" height="14.5"/>
<polygon class="st10" points="-197.7,148.8 -170.5,121.5 -180.6,111.5 "/>
</svg>
